{"title":"Super 8 (2011) BRRip 720p x264","uid":6782805,"size":1186081502,"categoryP":"video","categoryS":"hd___movies","magnet":"?xt=urn:btih:28ef817eea27db6e38687dcd326abeee93fbd423&amp;dn=Super+8+%282011%29+BRRip+720p+x264&amp;tr=udp%3A%2F%2Ftracker.openbittorrent.com%3A80&amp;tr=udp%3A%2F%2Fopen.demonii.com%3A1337&amp;tr=udp%3A%2F%2Ftracker.coppersurfer.tk%3A6969&amp;tr=udp%3A%2F%2Fexodus.desync.com%3A6969","seeders":1,"leechers":0,"uploader":"yassergre","files":-1,"time":1319932929,"description":"Super 8 (2011)\n-----------------------------------------------------------------------------------\nDuring the summer of 1979, a group of friends witness a train crash and investigate subsequent unexplained events in their small town.\n-----------------------------------------------------------------------------------\n\nGeneral\nFormat                                   : MPEG-4\nFile size                                : 1.10 GiB\nDuration                                 : 1h 51mn\nOverall bit rate                         : 1 414 Kbps\nMovie name                               : Super 8\nGenre                                    : SciFi\nRecorded date                            : 2011\n-----------------------------------------------------------------------------------\nVideo\nID                                       : 1\nFormat                                   : AVC\nDuration                                 : 1h 51mn\nBit rate                                 : 1 298 Kbps\nMaximum bit rate                         : 5 842 Kbps\nWidth                                    : 1 280 pixels\nHeight                                   : 536 pixels\nDisplay aspect ratio                     : 2.40:1\nFrame rate mode                          : Constant\nFrame rate                               : 23.976 fps\nStream size                              : 1.01 GiB (92%)\nWriting library                          : x264 core 116 r2042 178455c\n-----------------------------------------------------------------------------------\nAudio\nID                                       : 2\nFormat                                   : AAC\nFormat profile                           : LC\nDuration                                 : 1h 51mn\nBit rate mode                            : Variable\nBit rate                                 : 112 Kbps\nMaximum bit rate                         : 168 Kbps\nChannel(s)                               : 2 channels\nChannel positions                        : Front: L R\nSampling rate                            : 48.0 KHz\nStream size                              : 90.0 MiB (8%)\nTitle                                    : LC-AAC Stereo\n-----------------------------------------------------------------------------------\nText\nID                                       : 3\nFormat                                   : Timed text\nDuration                                 : 1h 49mn\nBit rate mode                            : Variable\nBit rate                                 : 76 bps\nStream size                              : 60.9 KiB (0%)\n\n\nEnjoy!!","torrent":{"xt":"urn:btih:28ef817eea27db6e38687dcd326abeee93fbd423","amp;dn":"Super+8+%282011%29+BRRip+720p+x264","amp;tr":["udp%3A%2F%2Ftracker.openbittorrent.com%3A80","udp%3A%2F%2Fopen.demonii.com%3A1337","udp%3A%2F%2Ftracker.coppersurfer.tk%3A6969","udp%3A%2F%2Fexodus.desync.com%3A6969"],"infoHash":"28ef817eea27db6e38687dcd326abeee93fbd423","infoHashBuffer":{"type":"Buffer","data":[40,239,129,126,234,39,219,110,56,104,125,205,50,106,190,238,147,251,212,35]},"announce":[],"urlList":[]}}